HIERARCHY
ROOT hip
{
  OFFSET 0 0 0
  CHANNELS 6 Xposition Yposition Zposition Zrotation Yrotation Xrotation
  JOINT abdomen
  {
    OFFSET 0 20.6881 -0.73152
    CHANNELS 3 Zrotation Xrotation Yrotation
    JOINT chest
    {
      OFFSET 0 11.7043 -0.48768
      CHANNELS 3 Zrotation Xrotation Yrotation
      JOINT neck
      {
        OFFSET 0 22.1894 -2.19456
        CHANNELS 3 Zrotation Xrotation Yrotation
        JOINT head
        {
          OFFSET -0.24384 7.07133 1.2192
          CHANNELS 3 Zrotation Xrotation Yrotation
          JOINT leftEye
          {
            OFFSET 4.14528 8.04674 8.04672
            CHANNELS 3 Zrotation Xrotation Yrotation
            End Site
            {
              OFFSET 1 0 0
            }
          }
          JOINT rightEye
          {
            OFFSET -3.6576 8.04674 8.04672
            CHANNELS 3 Zrotation Xrotation Yrotation
            End Site
            {
              OFFSET 1 0 0
            }
          }
        }
      }
      JOINT rCollar
      {
        OFFSET -2.68224 19.2634 -4.8768
        CHANNELS 3 Zrotation Xrotation Yrotation
        JOINT rShldr
        {
          OFFSET -8.77824 -1.95073 1.46304
          CHANNELS 3 Zrotation Xrotation Yrotation
          JOINT rForeArm
          {
            OFFSET -28.1742 -1.7115 0.48768
            CHANNELS 3 Zrotation Xrotation Yrotation
            JOINT rHand
            {
              OFFSET -22.5879 0.773209 7.07136
              CHANNELS 3 Zrotation Xrotation Yrotation
              JOINT rThumb1
              {
                OFFSET -1.2192 -0.487915 3.41376
                CHANNELS 3 Zrotation Xrotation Yrotation
                JOINT rThumb2
                {
                  OFFSET -3.37035 -0.52449 3.41376
                  CHANNELS 3 Zrotation Xrotation Yrotation
                  End Site
                  {
                    OFFSET -1.78271 -1.18214 1.43049
                  }
                }
              }
              JOINT rIndex1
              {
                OFFSET -7.75947 0.938293 5.60832
                CHANNELS 3 Zrotation Xrotation Yrotation
                JOINT rIndex2
                {
                  OFFSET -2.54057 -0.884171 1.56538
                  CHANNELS 3 Zrotation Xrotation Yrotation
                  End Site
                  {
                    OFFSET -1.62519 -0.234802 1.16502
                  }
                }
              }
              JOINT rMid1
              {
                OFFSET -8.24714 1.18213 3.41376
                CHANNELS 3 Zrotation Xrotation Yrotation
                JOINT rMid2
                {
                  OFFSET -3.10165 -0.590103 1.0647
                  CHANNELS 3 Zrotation Xrotation Yrotation
                  End Site
                  {
                    OFFSET -2.48547 -0.328903 0.83742
                  }
                }
              }
              JOINT rRing1
              {
                OFFSET -8.82822 0.546677 1.51678
                CHANNELS 3 Zrotation Xrotation Yrotation
                JOINT rRing2
                {
                  OFFSET -2.60934 -0.819778 -0.0198488
                  CHANNELS 3 Zrotation Xrotation Yrotation
                  End Site
                  {
                    OFFSET -2.33842 -0.294052 0.168128
                  }
                }
              }
              JOINT rPinky1
              {
                OFFSET -8.27202 -0.0477905 -0.4584
                CHANNELS 3 Zrotation Xrotation Yrotation
                JOINT rPinky2
                {
                  OFFSET -1.82734 -0.647385 -0.700984
                  CHANNELS 3 Zrotation Xrotation Yrotation
                  End Site
                  {
                    OFFSET -1.69225 -0.51767 -0.607171
                  }
                }
              }
            }
          }
        }
      }
      JOINT lCollar
      {
        OFFSET 2.68224 19.2634 -4.8768
        CHANNELS 3 Zrotation Xrotation Yrotation
        JOINT lShldr
        {
          OFFSET 8.77824 -1.95073 1.46304
          CHANNELS 3 Zrotation Xrotation Yrotation
          JOINT lForeArm
          {
            OFFSET 28.1742 -1.7115 0.48768
            CHANNELS 3 Zrotation Xrotation Yrotation
            JOINT lHand
            {
              OFFSET 22.5879 0.773209 7.07136
              CHANNELS 3 Zrotation Xrotation Yrotation
              JOINT lThumb1
              {
                OFFSET 1.2192 -0.487915 3.41376
                CHANNELS 3 Zrotation Xrotation Yrotation
                JOINT lThumb2
                {
                  OFFSET 3.37035 -0.52449 3.41376
                  CHANNELS 3 Zrotation Xrotation Yrotation
                  End Site
                  {
                    OFFSET 1.78271 -1.18214 1.43049
                  }
                }
              }
              JOINT lIndex1
              {
                OFFSET 7.75947 0.938293 5.60832
                CHANNELS 3 Zrotation Xrotation Yrotation
                JOINT lIndex2
                {
                  OFFSET 2.54057 -0.884171 1.56538
                  CHANNELS 3 Zrotation Xrotation Yrotation
                  End Site
                  {
                    OFFSET 1.62519 -0.234802 1.16502
                  }
                }
              }
              JOINT lMid1
              {
                OFFSET 8.24714 1.18213 3.41376
                CHANNELS 3 Zrotation Xrotation Yrotation
                JOINT lMid2
                {
                  OFFSET 3.10165 -0.590103 1.0647
                  CHANNELS 3 Zrotation Xrotation Yrotation
                  End Site
                  {
                    OFFSET 2.48547 -0.328903 0.83742
                  }
                }
              }
              JOINT lRing1
              {
                OFFSET 8.82822 0.546677 1.51678
                CHANNELS 3 Zrotation Xrotation Yrotation
                JOINT lRing2
                {
                  OFFSET 2.60934 -0.819778 -0.0198488
                  CHANNELS 3 Zrotation Xrotation Yrotation
                  End Site
                  {
                    OFFSET 2.33842 -0.294052 0.168128
                  }
                }
              }
              JOINT lPinky1
              {
                OFFSET 8.27202 -0.0477905 -0.4584
                CHANNELS 3 Zrotation Xrotation Yrotation
                JOINT lPinky2
                {
                  OFFSET 1.82734 -0.647385 -0.700984
                  CHANNELS 3 Zrotation Xrotation Yrotation
                  End Site
                  {
                    OFFSET 1.69225 -0.51767 -0.607171
                  }
                }
              }
            }
          }
        }
      }
    }
  }
  JOINT rButtock
  {
    OFFSET -8.77824 4.35084 1.2192
    CHANNELS 3 Zrotation Xrotation Yrotation
    JOINT rThigh
    {
      OFFSET 0 -1.70687 -2.19456
      CHANNELS 3 Zrotation Xrotation Yrotation
      JOINT rShin
      {
        OFFSET 0 -36.8199 0.73152
        CHANNELS 3 Zrotation Xrotation Yrotation
        JOINT rFoot
        {
          OFFSET 0.73152 -45.1104 -5.12064
          CHANNELS 3 Zrotation Xrotation Yrotation
          End Site
          {
            OFFSET -1.1221 -3.69964 12.103
          }
        }
      }
    }
  }
  JOINT lButtock
  {
    OFFSET 8.77824 4.35084 1.2192
    CHANNELS 3 Zrotation Xrotation Yrotation
    JOINT lThigh
    {
      OFFSET 0 -1.70687 -2.19456
      CHANNELS 3 Zrotation Xrotation Yrotation
      JOINT lShin
      {
        OFFSET 0 -36.8199 0.73152
        CHANNELS 3 Zrotation Xrotation Yrotation
        JOINT lFoot
        {
          OFFSET -0.73152 -45.1104 -5.12064
          CHANNELS 3 Zrotation Xrotation Yrotation
          End Site
          {
            OFFSET 1.1221 -3.69964 12.103
          }
        }
      }
    }
  }
}
MOTION
Frames:	8
Frame Time:	0.03333
0.0 0.0 0.0 0.0 0.0 0.0 0.0 0.0 0.0 0.0 0.0 0.0 0.0 0.0 0.0 0.0 0.0 0.0 0.0 0.0 0.0 0.0 0.0 0.0 0.0 0.0 0.0 0.0 0.0 0.0 0.0 0.0 0.0 0.0 0.0 0.0 0.0 0.0 0.0 0.0 0.0 0.0 0.0 0.0 0.0 0.0 0.0 0.0 0.0 0.0 0.0 0.0 0.0 0.0 0.0 0.0 0.0 0.0 0.0 0.0 0.0 0.0 0.0 0.0 0.0 0.0 0.0 0.0 0.0 0.0 0.0 0.0 0.0 0.0 0.0 0.0 0.0 0.0 0.0 0.0 0.0 0.0 0.0 0.0 0.0 0.0 0.0 0.0 0.0 0.0 0.0 0.0 0.0 0.0 0.0 0.0 0.0 0.0 0.0 0.0 0.0 0.0 0.0 0.0 0.0 0.0 0.0 0.0 0.0 0.0 0.0 0.0 0.0 0.0 0.0 0.0 0.0 0.0 0.0 0.0 0.0 0.0 0.0 0.0 0.0 0.0 0.0 0.0 0.0 0.0 0.0 0.0
-2.9899 69.2161 -0.0136 -6.277646 5.62425 5.000329 -1.156451 15.091708 -0.0 -0.367895 -12.905877 12.133504 -9.768198 24.598135 -86.725434 32.881954 13.264844 125.688143 0.000216 0.0 0.002005 0.000216 0.0 0.002005 -142.973828 39.431731 147.3903 16.559685 17.976647 18.917758 -175.39536 45.309393 -76.266813 -14.575987 -42.932358 -11.091833 171.499475 -25.05508 87.374108 -91.05767 19.338934 34.517546 -150.884381 -16.291717 120.978829 85.414716 -69.646227 33.42621 -36.035749 51.723147 29.832421 -7.190791 26.202045 6.142367 0.000907 0.063835 0.019636 -154.955397 5.049298 171.187078 -140.387402 -1.529616 -137.472434 2.679152 0.246675 -1.873557 28.703032 57.498247 -31.08155 -4.602031 16.429978 -57.960137 -74.355985 62.828664 132.645036 -173.450202 0.263276 -146.973404 -6.275482 -6.263206 0.62642 24.666088 21.999504 -18.317657 151.351157 -17.15873 -121.133731 145.806486 15.546617 -115.420643 0.569824 1.648572 -0.322008 -86.239579 -78.350001 -57.499099 70.3773 -72.131922 87.278894 149.882971 -27.13429 179.966998 -0.211265 0.551886 -0.194357 43.019406 -50.956043 43.22719 179.99262 75.749741 0.005049 172.442574 28.399043 -0.0 55.613705 72.515582 27.145297 -28.339461 25.898478 -89.950969 179.99262 75.749741 0.005049 -151.586861 16.64753 -79.023061 -59.513649 39.837845 176.969517 -15.00222 20.652156 -103.533254
-4.1797 70.0213 0.0473 -6.690752 5.012936 4.870794 -0.059565 10.227765 -178.908148 0.904523 7.917683 -168.867224 -9.842168 23.971779 -83.278077 32.638007 11.428225 122.511722 0.000778 -0.0 -0.002403 0.000778 -0.0 -0.002403 4.239524 -44.742721 -8.647999 -20.682802 80.011814 19.054285 -3.886388 67.048504 -132.996057 -145.954737 27.917577 129.907385 -171.602636 -9.286505 89.950349 -145.189164 7.187091 74.383745 -117.36993 28.359039 99.24441 -5.659882 20.745646 -2.142764 -161.154113 -8.160514 143.465219 -7.502369 26.11089 6.445986 -74.840388 72.961308 92.827851 5.111965 28.347516 -0.716484 1.242932 3.334404 1.143731 28.25756 75.247598 6.318247 -0.034512 -0.209511 0.045979 -59.262565 -5.635852 -10.103297 31.792845 12.647944 -31.409225 -6.569869 -11.709335 -3.183839 -1.842661 -1.827016 0.254692 -9.475517 -14.684776 8.838578 -9.255658 -16.276269 4.254836 64.617397 48.891368 -51.245536 160.889408 -7.337855 -143.344264 -2.65219 1.632405 -0.586781 -0.005393 1.68823 -0.531699 -10.902733 -12.241835 1.537599 -8.36764 26.426779 -7.362862 -1.877666 -0.292914 0.205307 0.0 -0.000222 0.000525 -7.287327 -45.822931 -5.34112 57.533083 67.882982 23.806759 -40.256684 74.148935 -62.311256 179.996828 75.748745 0.00217 -156.598418 15.835114 122.232143 63.067319 -45.718733 148.121348 98.653362 -57.779307 -179.402814
-5.3069999999999995 70.69720000000001 0.1095 -6.680329 4.353128 5.011284 0.566439 14.57648 -0.119719 -0.879738 -12.474013 12.452768 10.068419 17.709155 69.400321 -24.662814 -3.898583 -30.489183 0.001967 -0.0 -0.001949 -0.003812 -0.0 0.00266 -157.642559 -66.710512 175.898558 -9.489695 13.919888 17.737888 2.125627 22.695297 107.201678 -14.442875 -43.654404 -11.307927 -7.549971 7.247169 1.624056 38.191228 -52.203883 -12.65525 -123.870175 22.787905 104.454874 62.750832 -63.240224 17.593503 -151.476654 17.841587 137.538408 -176.704914 -42.247088 142.412632 0.005412 1.771148 0.558022 10.190656 -0.062981 -0.076504 0.09779 0.258786 0.089403 -146.914869 10.287677 -143.368892 59.833271 -86.721232 81.633908 173.146742 17.76367 140.360274 42.423562 10.933132 28.686173 -56.853898 -64.746721 -44.688021 -11.109886 -11.092176 0.63904 0.835305 -3.588976 7.164423 140.164077 2.32622 -115.877979 168.772843 -26.050179 -118.513591 156.899575 4.411733 -141.205583 -11.578708 -24.890617 1.144307 145.121306 1.974627 179.748482 -11.759208 29.429966 5.655021 0.528554 -1.364161 0.491259 -19.453241 58.389405 -9.608742 -179.998432 75.747385 -0.0 175.9008 28.061981 -180.0 -27.236257 -80.802342 61.017184 145.208225 40.847082 -36.088682 179.970576 75.750228 0.02421 -157.327851 16.367363 -87.007445 -80.662962 19.12147 -76.69599 93.324581 5.956308 164.576214
-6.4094 71.26169999999999 0.2593 -6.715347 3.824389 5.211299 0.151323 13.727189 25.405075 -5.267027 -10.746547 -13.240289 -4.958073 14.564204 -21.570358 17.917043 -15.660569 64.947405 0.00172 0.0 0.003062 0.001913 -0.0 -0.000152 0.163146 -0.989906 -0.219807 -157.110276 -45.488757 -168.227991 -47.8886 5.304086 138.261792 -167.074036 -73.286501 173.403048 179.142842 -18.272514 89.12867 123.406623 -64.986915 93.116302 -50.387397 40.824939 40.025659 32.974365 -37.515869 0.770099 -36.03737 51.722819 29.832345 -10.111247 31.489976 8.292913 0.000503 -0.060953 -0.018432 10.24474 1.23095 0.087135 -1.179061 -2.985173 -1.092108 -147.593334 12.728201 -143.946993 159.222156 -48.725204 -170.566302 -104.542086 60.306416 121.436248 2.430673 6.468521 -34.544325 5.331823 25.370046 -1.498677 -51.059322 -41.204574 -12.855919 20.740095 3.761133 10.302064 28.902644 31.615078 -21.339157 12.028816 24.96466 -6.672295 0.571018 1.648372 -0.322028 -5.172732 -5.862048 0.702746 145.117564 0.267431 179.213074 66.983714 87.686241 -80.232677 25.53726 -38.086734 24.600548 126.538593 -30.708888 125.557631 179.999766 75.748024 0.000241 176.937952 30.649544 34.096703 67.45342 48.33443 -134.639384 -97.958926 -56.737713 -8.872984 -179.972998 75.750864 -0.020812 -161.823515 15.229646 -180.0 -41.858779 -77.764731 39.453419 161.669 -21.272365 -119.691244
-7.3003 71.753 0.40299999999999997 -7.161897 3.306734 5.088168 2.082136 13.665155 -0.0 -1.290032 -11.968162 12.394884 -7.835119 29.133785 -114.406129 28.710435 26.051959 150.629805 0.00416 -0.0 -0.002193 -0.00173 -0.0 0.000954 -153.590882 -75.693458 -178.260977 -91.643897 72.961936 87.993922 -17.221625 -64.142378 88.926545 -13.754728 -53.930463 -14.672843 -171.653893 -9.336027 89.949941 -45.607415 -16.913706 8.006851 -153.453415 -21.06776 121.744333 -4.693581 28.207047 -1.852951 -169.091134 -33.247263 145.374222 -172.391715 -31.34506 143.678337 -145.119322 0.227178 -179.198341 -141.951136 -56.351361 -164.104999 32.02412 83.320597 6.219258 2.70825 3.617814 0.074355 -0.162712 -0.99007 0.218613 112.89804 1.680154 -170.895127 -20.593818 -10.006909 62.471354 -169.220199 -12.324132 -145.54613 173.771431 -11.439692 -89.8909 -17.667421 -62.973989 -16.223749 50.385892 40.826093 -40.025282 3.690351 14.858401 -0.676399 164.637218 -19.283752 -144.733648 42.525533 58.273133 -36.579762 -0.006968 1.854399 -0.582584 -10.921753 -12.976448 1.619839 156.516039 54.250135 150.180357 24.594156 -39.176583 25.183596 179.992977 75.750295 0.007246 179.539489 29.337365 -178.30744 -45.23818 -64.908702 172.896025 149.029384 -61.239024 62.276401 0.0 0.001074 -0.001459 23.71766 -56.241076 131.047261 88.311636 -32.582105 48.869946 -168.267794 -7.059828 126.80392
-8.0555 72.1101 0.5316000000000001 -7.308195 2.65122 5.180358 2.740943 13.293349 -0.519475 -1.408732 -11.804599 13.700064 -1.224707 32.539632 -156.752983 10.866461 38.014087 -165.269718 -0.000507 -0.0 0.000576 -0.000507 -0.0 0.000576 -9.651867 34.836187 11.199105 19.601629 13.554824 -3.643318 -105.363626 30.994476 -51.731161 -168.449857 -35.678258 157.253737 -161.771533 0.528654 89.181468 -133.562988 6.059065 64.992319 169.568047 -65.84251 109.956192 -10.460197 37.172254 6.285877 -39.290217 53.365064 32.879755 -129.031184 52.021605 118.418352 -145.118523 0.184785 -179.187993 11.798998 26.290231 -6.000742 -139.225582 -4.397083 -136.390577 -147.279833 11.851736 -141.788716 142.97395 39.431796 -147.390433 37.797603 -0.614005 -37.426245 102.922397 -40.467625 125.337034 -22.885804 -44.070405 -14.18 -51.059589 -41.204289 -12.856213 134.096105 8.649117 -109.581581 -10.745381 -19.048442 4.72529 164.394674 -20.990133 -110.213573 36.035239 51.723797 -29.830972 -3.044651 1.05934 -0.214631 0.021346 -1.726816 0.54329 156.064429 -15.991268 -173.742463 -9.030847 28.890848 -7.89143 24.815455 -41.205196 25.012397 0.0 -0.000426 0.0005 -0.495924 -45.209925 120.77689 65.207769 -48.300105 -37.739364 -30.657161 22.707767 -73.742942 0.0 -0.000426 0.0005 19.228974 -56.830862 -157.378425 -44.84218 -80.072568 52.704446 26.406735 -17.233827 90.153495
-8.6509 72.4407 0.6631 -7.371878 1.495817 5.43458 4.518625 8.508632 -141.698067 6.92104 3.763604 155.858829 -7.634419 28.987611 -115.431398 27.836878 25.762202 151.64162 -0.001684 0.0 -0.001744 -0.001673 -0.0 0.002975 -157.760173 -21.736417 165.398485 -151.485351 33.904398 146.397129 -70.039947 -56.368573 44.861187 -26.828151 -81.374223 -37.949297 178.618203 -18.759685 89.039029 22.92819 -68.65339 16.274047 -138.763027 4.486897 115.030972 -63.774578 56.664261 45.566222 -160.937618 -7.488207 143.367602 -172.313981 -31.360849 143.655233 -145.100301 -1.521401 -178.650757 -76.036149 -77.982974 -97.691227 -157.327192 57.246346 -150.513822 -78.462254 -53.148179 -77.292604 158.417632 -29.366608 -166.792918 173.01449 -61.103505 139.03762 108.972383 -65.290247 88.191293 -2.119689 2.721918 -1.799811 -2.013449 -1.996239 0.275308 95.11266 18.217891 -86.687449 166.823649 -43.973287 -122.061631 13.394686 39.533334 -6.359616 86.294928 60.960169 -77.857396 170.179693 -26.297605 -144.093026 74.841263 72.962057 -92.827577 -2.998653 46.747224 -2.924062 -17.313457 60.660553 -12.799953 129.370645 -28.8942 126.509791 0.000196 -5.2e-05 9.8e-05 1.401903 -43.083599 0.0 31.701417 63.576256 -14.214542 87.976135 -53.849694 10.709902 -7e-06 -0.001158 9e-06 10.631304 -56.39865 147.376083 77.903804 -60.814039 -24.116856 -108.771425 48.118875 2.859757
